# xmcd
#
# Track frame offsets:
#	150
#	14739
#	28488
#	42291
#	62156
#	75445
#	89766
#	105390
#	119286
#	130560
#	143910
#	161235
#
# Disc length: 2387 seconds
#
# Revision: 0
# Processed by: cddbd v1.5.1PL2 Copyright (c) Steve Scherf et al.
# Submitted via: dBpowerAMP V4.0
#
DISCID=a409510c
DTITLE=Dennis Caplinger and Sharon Whyte - Pickin On The Counting Crows - A Bluegrass Tribute
DYEAR=1900
DGENRE=Bluegrass
TTITLE0=American Girls
TTITLE1=Mr. Jones
TTITLE2=She Don't Want Nobody Near
TTITLE3=Round Here
TTITLE4=Daylight Fading
TTITLE5=A Long December
TTITLE6=Big Yellow Taxi
TTITLE7=Have You Seen Me Lately
TTITLE8=Hangin' Around
TTITLE9=Angels Of The Silences
TTITLE10=Einstein At The Beach
TTITLE11=Rain King
EXTD=
EXTT0=
EXTT1=
EXTT2=
EXTT3=
EXTT4=
EXTT5=
EXTT6=
EXTT7=
EXTT8=
EXTT9=
EXTT10=
EXTT11=
PLAYORDER=
